<svg id="img" xmlns="http://www.w3.org/2000/svg" viewBox="0 0 860 320"><defs><style>.cls-1{fill:#48c1bb;}</style></defs><title>a+c_logo_main</title><path class="cls-1" d="M302.77,3.77H19.31a14.5,14.5,0,0,0-14.5,14.5V301.73a14.5,14.5,0,0,0,14.5,14.5H302.77a14.5,14.5,0,0,0,14.5-14.5V18.27A14.5,14.5,0,0,0,302.77,3.77ZM33.81,56.1,73.67,96V191L33.81,151.17ZM137.71,160l-31,31V129ZM57.14,32.77h207.8L161,136.67ZM161,183.33l47.53,47.54L161,278.4l-47.53-47.53Zm70.87,70.87,33,33H198.87ZM184.37,160,288.27,56.1V263.9ZM33.81,197.83l89.4,89.4H33.81Z"/><path d="M534.33,88.54v142.6h-25.9L503.63,211c-12.15,15.34-30.05,23.65-51.47,23.65-39.65,0-68.1-29.41-68.1-74.81,0-44.12,28.45-74.81,68.74-74.81,19.82,0,37.72,8,50.19,24l5.76-20.47Zm-33.57,71.3c0-27.18-16.63-44.12-41.25-44.12-23.66,0-40.28,16.94-40.28,44.12,0,27.5,16.62,44.44,40.28,44.44C484.13,204.28,500.76,187.34,500.76,159.84Zm115.15,13.84H573.1V144.91h42.81V101.46H646v43.45h42.81v28.77H646v43.45H615.91Zm108.2-13.84c0-46.68,34.21-75.13,75.13-75.13,20.78,0,38,6.07,53.08,19.18l-17,23.34c-10.23-8.63-19.82-12.15-33.57-12.15-24,0-42.52,17.58-42.52,44.76,0,28.14,18.86,44.76,41.88,44.76,15.35,0,25.9-4.79,36.45-14.71l17.58,23.34c-16,14.71-32.29,22.06-57.55,22.06C761.52,235.29,724.11,209.72,724.11,159.84Z"/></svg>